<svg width="16" height="20" viewBox="0 0 16 20" fill="none" xmlns="http://www.w3.org/2000/svg">
<path d="M3 2V1C3 0.734784 3.10536 0.48043 3.29289 0.292893C3.48043 0.105357 3.73478 0 4 0H12C12.2652 0 12.5196 0.105357 12.7071 0.292893C12.8946 0.48043 13 0.734784 13 1V2H16C16 4.5 13.5 5.5 13 5.5V8H16C16 10.5 13.5 11.5 13 11.5V14H16C16 16.5 13.5 17.5 13 17.5V19C13 19.2652 12.8946 19.5196 12.7071 19.7071C12.5196 19.8946 12.2652 20 12 20H4C3.73478 20 3.48043 19.8946 3.29289 19.7071C3.10536 19.5196 3 19.2652 3 19V17.5C2.5 17.5 0 16.5 0 14H3V11.5C2.5 11.5 0 10.5 0 8H3V5.5C2.5 5.5 0 4.5 0 2H3ZM8 18C8.53043 18 9.03914 17.7893 9.41421 17.4142C9.78929 17.0391 10 16.5304 10 16C10 15.4696 9.78929 14.9609 9.41421 14.5858C9.03914 14.2107 8.53043 14 8 14C7.46957 14 6.96086 14.2107 6.58579 14.5858C6.21071 14.9609 6 15.4696 6 16C6 16.5304 6.21071 17.0391 6.58579 17.4142C6.96086 17.7893 7.46957 18 8 18ZM8 12C8.53043 12 9.03914 11.7893 9.41421 11.4142C9.78929 11.0391 10 10.5304 10 10C10 9.46957 9.78929 8.96086 9.41421 8.58579C9.03914 8.21071 8.53043 8 8 8C7.46957 8 6.96086 8.21071 6.58579 8.58579C6.21071 8.96086 6 9.46957 6 10C6 10.5304 6.21071 11.0391 6.58579 11.4142C6.96086 11.7893 7.46957 12 8 12ZM8 6C8.53043 6 9.03914 5.78929 9.41421 5.41421C9.78929 5.03914 10 4.53043 10 4C10 3.46957 9.78929 2.96086 9.41421 2.58579C9.03914 2.21071 8.53043 2 8 2C7.46957 2 6.96086 2.21071 6.58579 2.58579C6.21071 2.96086 6 3.46957 6 4C6 4.53043 6.21071 5.03914 6.58579 5.41421C6.96086 5.78929 7.46957 6 8 6Z" fill="#09121F"/>
</svg>
