<svg width="20" height="20" viewBox="0 0 20 20" fill="none" xmlns="http://www.w3.org/2000/svg">
<path d="M14.625 1.133L13.125 2.633C12.1365 2.21393 11.0736 1.99863 10 2C5.58 2 2 5.58 2 10C2 14.42 5.58 18 10 18C14.42 18 18 14.42 18 10C18.0014 8.92636 17.7861 7.86348 17.367 6.875L18.867 5.375C19.6134 6.80226 20.0022 8.38936 20 10C20 15.52 15.52 20 10 20C4.48 20 0 15.52 0 10C0 4.48 4.48 0 10 0C11.668 0 13.241 0.41 14.625 1.133ZM16.364 2.222L17.778 3.636L10 11.414L8.586 10L16.364 2.222Z" fill="#09121F"/>
</svg>
